<?xml version="1.0" ?><!DOCTYPE svg  PUBLIC '-//W3C//DTD SVG 1.1//EN'  'http://www.w3.org/Graphics/SVG/1.1/DTD/svg11.dtd'><svg height="0.990276in" style="shape-rendering:geometricPrecision; text-rendering:geometricPrecision; image-rendering:optimizeQuality; fill-rule:evenodd; clip-rule:evenodd" version="1.1" viewBox="0 0 6803 6796" width="0.991323in" xml:space="preserve" xmlns="http://www.w3.org/2000/svg" xmlns:xlink="http://www.w3.org/1999/xlink"><defs><style type="text/css">
   <![CDATA[
    .str0 {stroke:black;stroke-width:47.6587}
    .fil0 {fill:black}
   ]]>
  </style></defs><g id="Layer_x0020_1"><g id="_517584664"><path class="fil0" d="M4045 3357l-1041 562 -1 -866 0 -263 470 256 572 311zm1245 -763c0,0 -38,-277 -153,-399 -147,-160 -311,-161 -386,-170 -540,-40 -1349,-40 -1349,-40l-1 0c0,0 -810,0 -1349,40 -75,9 -239,10 -386,170 -115,122 -153,399 -153,399 0,0 -39,325 -39,651l0 39 0 265c0,326 39,651 39,651 0,0 38,277 153,399 147,160 340,155 425,171 309,31 1310,41 1310,41 0,0 810,-2 1350,-42 75,-9 239,-10 386,-170 115,-122 153,-399 153,-399 0,0 38,-325 38,-651l0 -248 0 -56c0,-326 -38,-651 -38,-651z"/><path class="fil0 str0" d="M6772 3412c-8,1857 -1516,3360 -3374,3360 -1864,0 -3374,-1511 -3374,-3374 0,-1864 1510,-3374 3374,-3374l3381 0 0 3388 -7 0zm-3374 -3031c1666,0 3016,1351 3016,3017l0 14c-7,1660 -1355,3002 -3016,3002 -1666,0 -3017,-1350 -3017,-3016 0,-1666 1351,-3017 3017,-3017z"/></g></g></svg>